<svg width="103" height="40" viewBox="0 0 103 40" fill="none" xmlns="http://www.w3.org/2000/svg">
<path id="dine" fill-rule="evenodd" clip-rule="evenodd" d="M11.4596 40C13.0815 40 14.5974 39.6651 16.0071 38.9954C17.4168 38.3257 18.637 37.3896 19.6678 36.1872V39.2694H26.6481V0H19.6678V18.7443C18.7431 17.618 17.5835 16.739 16.189 16.1073C14.7944 15.4756 13.2786 15.1598 11.6415 15.1598C9.38293 15.1598 7.37826 15.704 5.62748 16.7922C3.87671 17.8805 2.5011 19.3569 1.50066 21.2215C0.500221 23.086 0 25.2055 0 27.5799C0 30 0.515379 32.1461 1.54614 34.0183C2.57689 35.8904 3.96008 37.3554 5.6957 38.4132C7.43131 39.4711 9.35261 40 11.4596 40ZM13.5514 34.0411C12.3539 34.0411 11.2853 33.7633 10.3455 33.2078C9.40567 32.6522 8.67049 31.8912 8.13996 30.9247C7.60942 29.9581 7.34415 28.8584 7.34415 27.6256C7.34415 26.3775 7.617 25.2626 8.16269 24.2808C8.70839 23.2991 9.44735 22.5266 10.3796 21.9635C11.3118 21.4003 12.3767 21.1187 13.5742 21.1187C14.7868 21.1187 15.8631 21.4003 16.8029 21.9635C17.7427 22.5266 18.4816 23.2953 19.0198 24.2694C19.5579 25.2435 19.8269 26.3546 19.8269 27.6027C19.8269 28.8356 19.5579 29.9391 19.0198 30.9132C18.4816 31.8874 17.7427 32.6522 16.8029 33.2078C15.8631 33.7633 14.7792 34.0411 13.5514 34.0411ZM39.8358 10.468C39.2143 10.8409 38.5246 11.0274 37.7667 11.0274C37.0088 11.0274 36.3153 10.8409 35.6862 10.468C35.0571 10.0951 34.5531 9.58904 34.1742 8.94977C33.7952 8.3105 33.6057 7.61035 33.6057 6.84931C33.6057 6.08828 33.7952 5.39574 34.1742 4.77169C34.5531 4.14764 35.0571 3.64916 35.6862 3.27626C36.3153 2.90335 37.0088 2.71689 37.7667 2.71689C38.5246 2.71689 39.2143 2.90335 39.8358 3.27626C40.4572 3.64916 40.9537 4.14764 41.3251 4.77169C41.6964 5.39574 41.8821 6.08828 41.8821 6.84931C41.8821 7.61035 41.6964 8.3105 41.3251 8.94977C40.9537 9.58904 40.4572 10.0951 39.8358 10.468ZM41.2455 39.2694V15.8904H34.2651V39.2694H41.2455ZM55.8883 25.4338V39.2694H48.9079V15.8904H55.8883V18.4932C56.7826 17.4886 57.9006 16.6819 59.2421 16.0731C60.5836 15.4642 62.0653 15.1598 63.6872 15.1598C65.4759 15.1598 67.0485 15.5518 68.4052 16.3356C69.7618 17.1195 70.8267 18.2078 71.5998 19.6005C72.3728 20.9932 72.7594 22.618 72.7594 24.4749V39.2694H65.779V25.9589C65.779 24.2846 65.3432 22.9795 64.4716 22.0434C63.6 21.1073 62.4063 20.6393 60.8905 20.6393C59.8597 20.6393 58.9692 20.8486 58.2189 21.2671C57.4685 21.6857 56.8925 22.2565 56.4908 22.9795C56.0891 23.7024 55.8883 24.5205 55.8883 25.4338ZM91.1311 40C93.5868 40 95.815 39.4673 97.8159 38.4018C99.8168 37.3364 101.363 35.86 102.454 33.9726L97.4294 31.4384C96.5653 32.4734 95.6672 33.2268 94.735 33.6986C93.8028 34.1705 92.7303 34.4064 91.5177 34.4064C90.2292 34.4064 89.0999 34.1591 88.1298 33.6644C87.1597 33.1697 86.4056 32.481 85.8674 31.5982C85.3293 30.7154 85.0603 29.6804 85.0603 28.4932H102.909C102.955 28.0974 102.981 27.8272 102.989 27.6826C102.996 27.5381 103 27.3668 103 27.1689C103 24.7793 102.488 22.6865 101.465 20.8904C100.442 19.0944 99.0172 17.6903 97.1906 16.6781C95.3641 15.6659 93.2381 15.1598 90.8128 15.1598C88.9938 15.1598 87.3037 15.4756 85.7424 16.1073C84.1811 16.739 82.8093 17.6218 81.6269 18.7557C80.4446 19.8897 79.5237 21.21 78.8643 22.7169C78.205 24.2237 77.8753 25.8447 77.8753 27.5799C77.8753 29.9391 78.4589 32.0548 79.626 33.9269C80.7932 35.7991 82.3735 37.2793 84.3668 38.3676C86.3601 39.4559 88.6149 40 91.1311 40ZM85.3104 24.6119H96.1333C95.9818 23.7139 95.6596 22.9376 95.167 22.2831C94.6744 21.6286 94.0491 21.1263 93.2912 20.7763C92.5333 20.4262 91.6768 20.2511 90.7219 20.2511C89.7063 20.2511 88.8119 20.4262 88.0389 20.7763C87.2658 21.1263 86.6443 21.6286 86.1744 22.2831C85.7045 22.9376 85.4165 23.7139 85.3104 24.6119Z" fill="white"/>
</svg>
